<svg xmlns="http://www.w3.org/2000/svg" xmlns:xlink="http://www.w3.org/1999/xlink" viewBox="0 0 85 75" width="85" height="75"><defs><radialGradient id="未命名漸層_54" cx="56.38" cy="32.56" r="19.97" gradientUnits="userSpaceOnUse"><stop offset="0" stop-color="#fff"/><stop offset="0.18" stop-color="#fbfbfb"/><stop offset="0.37" stop-color="#efefef"/><stop offset="0.56" stop-color="#dadada"/><stop offset="0.75" stop-color="#bebebe"/><stop offset="0.94" stop-color="#999"/><stop offset="1" stop-color="#8c8c8c"/></radialGradient><radialGradient id="未命名漸層_54-2" cx="28.65" cy="32.56" r="19.97" xlink:href="#未命名漸層_54"/></defs><title>LOGO_01_03</title><g id="圖層_5" data-name="圖層 5"><polygon id="L" points="19.64 62.52 20.46 61.53 21.08 60.77 21.68 60 22.34 59.12 22.99 58.2 23.62 57.27 24.22 56.32 24.8 55.34 25.35 54.35 25.66 53.75 25.96 53.15 26.33 52.33 26.69 51.51 27.01 50.67 27.35 49.72 27.64 48.76 27.9 47.78 28.11 46.8 28.2 46.26 28.28 45.72 28.35 45.18 28.4 44.64 28.45 43.68 28.45 42.71 28.42 41.75 28.37 41.03 28.3 40.31 28.22 39.6 28.13 38.89 27.97 37.89 27.81 36.91 27.64 35.92 27.48 34.94 27.31 33.72 27.23 32.99 27.18 32.45 27.16 31.91 27.14 31.36 27.14 30.82 27.16 30.09 27.21 29.36 27.27 28.63 27.36 27.96 27.47 27.29 27.59 26.63 27.74 25.96 27.89 25.36 28.05 24.76 28.25 24.05 28.48 23.35 28.8 22.38 29.15 21.41 29.51 20.45 29.89 19.5 30.28 18.55 30.69 17.62 31.25 16.38 31.84 15.15 32.47 13.94 32.95 13.03 33.45 12.13 34.13 10.94 34.84 9.76 35.57 8.6 36.27 7.52 37.36 5.92 38.54 4.25 41.56 0.01 36.55 5.45 35.6 6.84 34.68 8.26 33.79 9.7 32.93 11.16 32.06 12.72 31.23 14.3 30.83 15.1 30.44 15.91 29.84 17.22 29.28 18.54 28.74 19.87 28.23 21.22 27.74 22.6 27.51 23.3 27.3 24 27.03 24.94 26.8 25.89 26.6 26.85 26.44 27.8 26.33 28.75 26.25 29.7 26.21 30.66 26.21 31.61 26.26 32.57 26.35 33.53 26.43 34.17 26.62 35.44 26.86 36.88 27.1 38.31 27.23 39.16 27.33 40.01 27.4 40.67 27.46 41.32 27.51 42.33 27.52 43.33 27.51 43.83 27.49 44.33 27.45 44.84 27.39 45.35 27.32 45.86 27.24 46.37 27.04 47.37 26.78 48.37 26.14 50.34 25.69 51.48 25.43 52.06 25.17 52.64 24.61 53.76 24.01 54.86 23.37 55.93 22.54 57.21 22.1 57.85 21.66 58.48 20.76 59.67 19.64 62.52" style="fill:#999"/><polygon id="R" points="65.39 62.52 64.56 61.53 63.95 60.77 63.35 60 62.68 59.12 62.04 58.2 61.41 57.27 60.8 56.32 60.23 55.34 59.68 54.35 59.37 53.75 59.07 53.15 58.69 52.33 58.34 51.51 58.02 50.67 57.68 49.72 57.39 48.76 57.13 47.78 56.92 46.8 56.83 46.26 56.75 45.72 56.68 45.18 56.63 44.64 56.58 43.68 56.57 42.71 56.61 41.75 56.66 41.03 56.72 40.31 56.81 39.6 56.9 38.89 57.05 37.89 57.22 36.91 57.39 35.92 57.55 34.94 57.72 33.72 57.8 32.99 57.84 32.45 57.87 31.91 57.89 31.36 57.89 30.82 57.87 30.09 57.82 29.36 57.75 28.63 57.67 27.96 57.56 27.29 57.44 26.63 57.29 25.96 57.14 25.36 56.98 24.76 56.77 24.05 56.55 23.35 56.23 22.38 55.88 21.41 55.52 20.45 55.14 19.5 54.75 18.55 54.34 17.62 53.78 16.38 53.18 15.15 52.56 13.94 52.08 13.03 51.58 12.13 50.89 10.94 50.19 9.76 49.46 8.6 48.76 7.52 47.67 5.92 46.49 4.25 43.47 0.01 48.47 5.45 49.42 6.85 50.35 8.26 51.24 9.7 52.1 11.16 52.97 12.72 53.8 14.3 54.2 15.1 54.59 15.91 55.18 17.22 55.75 18.54 56.29 19.87 56.8 21.22 57.29 22.6 57.52 23.3 57.73 24 57.99 24.94 58.23 25.89 58.43 26.85 58.58 27.8 58.7 28.75 58.78 29.7 58.82 30.66 58.81 31.61 58.77 32.57 58.68 33.53 58.6 34.17 58.41 35.44 58.17 36.88 57.93 38.31 57.8 39.16 57.69 40.01 57.62 40.67 57.57 41.32 57.51 42.33 57.5 43.33 57.52 43.83 57.54 44.33 57.58 44.84 57.64 45.35 57.71 45.86 57.79 46.37 57.99 47.37 58.24 48.37 58.54 49.36 58.88 50.34 59.1 50.91 59.34 51.48 59.59 52.06 59.86 52.64 60.42 53.76 61.02 54.86 61.66 55.93 62.07 56.58 62.49 57.21 62.92 57.85 63.37 58.48 64.27 59.67 65.39 62.52" style="fill:#999"/><polygon points="63.9 58.67 64.28 59.67 63.37 58.48 62.93 57.85 62.49 57.21 62.07 56.57 61.66 55.93 61.02 54.86 60.42 53.76 59.86 52.65 59.59 52.07 59.34 51.48 59.11 50.91 58.89 50.34 58.55 49.37 58.25 48.37 57.99 47.37 57.79 46.36 57.7 45.86 57.64 45.35 57.58 44.84 57.55 44.34 57.52 43.83 57.51 43.33 57.52 42.33 57.57 41.32 57.63 40.66 57.69 40.01 57.81 39.16 57.93 38.32 58.17 36.88 58.41 35.44 58.6 34.17 58.69 33.52 58.77 32.57 58.82 31.61 58.82 30.65 58.78 29.7 58.7 28.75 58.58 27.79 58.43 26.85 58.23 25.89 57.99 24.94 57.73 24 57.52 23.3 57.29 22.59 56.8 21.21 56.29 19.86 55.75 18.54 55.19 17.21 54.59 15.91 54.2 15.1 53.81 14.3 52.97 12.71 52.09 11.15 51.24 9.7 50.35 8.27 49.43 6.84 48.48 5.44 49.68 6.83 50.86 8.24 52 9.67 53.11 11.13 54.18 12.62 55.21 14.14 56.12 15.57 57 17.03 57.84 18.52 58.55 19.86 59.21 21.21 59.84 22.59 60.41 23.99 60.67 24.65 60.92 25.32 61.15 25.99 61.37 26.67 61.68 27.69 61.93 28.72 62.15 29.76 62.25 30.28 62.32 30.81 62.41 31.61 62.48 32.4 62.52 33.2 62.53 33.8 62.53 34.4 62.48 35.61 62.39 36.81 62.26 38.02 62.13 38.93 62.03 39.54 61.84 40.76 61.65 41.97 61.55 42.58 61.44 43.49 61.37 44.18 61.32 44.87 61.28 45.84 61.29 46.81 61.34 47.78 61.42 48.77 61.5 49.39 61.58 50.03 61.7 50.69 61.81 51.36 61.95 52.04 62.1 52.71 62.27 53.46 62.47 54.21 62.87 55.6 63.2 56.64 63.55 57.66 63.9 58.67" style="fill:url(#未命名漸層_54)"/><polygon points="36.55 5.44 35.6 6.84 34.68 8.27 33.78 9.7 32.92 11.15 32.05 12.71 31.22 14.3 30.83 15.1 30.44 15.91 29.84 17.21 29.28 18.54 28.74 19.86 28.23 21.21 27.74 22.59 27.51 23.3 27.3 24 27.03 24.94 26.79 25.89 26.6 26.85 26.44 27.79 26.32 28.75 26.25 29.7 26.2 30.65 26.21 31.61 26.26 32.57 26.34 33.52 26.43 34.17 26.61 35.44 26.86 36.88 27.1 38.32 27.22 39.16 27.34 40.01 27.4 40.66 27.46 41.32 27.51 42.33 27.52 43.33 27.51 43.83 27.48 44.34 27.45 44.84 27.39 45.35 27.32 45.86 27.24 46.36 27.04 47.37 26.78 48.37 26.48 49.37 26.14 50.34 25.92 50.91 25.43 52.07 25.17 52.65 24.61 53.76 24.01 54.86 23.37 55.93 22.96 56.57 22.54 57.21 22.1 57.85 20.75 59.67 21.13 58.67 21.48 57.66 21.83 56.64 22.16 55.6 22.56 54.21 22.75 53.46 22.93 52.71 23.08 52.04 23.22 51.36 23.33 50.69 23.45 50.03 23.53 49.39 23.61 48.77 23.69 47.78 23.74 46.81 23.75 45.84 23.71 44.87 23.65 44.18 23.59 43.49 23.47 42.58 23.38 41.97 23.19 40.76 23 39.54 22.9 38.93 22.77 38.02 22.64 36.81 22.55 35.61 22.5 34.4 22.5 33.8 22.51 33.2 22.55 32.4 22.61 31.61 22.71 30.81 22.78 30.28 22.88 29.76 23.09 28.72 23.35 27.69 23.66 26.67 23.88 25.99 24.11 25.32 24.35 24.65 24.61 23.99 25.19 22.59 25.82 21.21 26.48 19.86 27.18 18.52 28.03 17.03 28.9 15.57 29.82 14.14 30.85 12.62 31.91 11.13 33.03 9.67 34.17 8.24 35.34 6.83 36.55 5.44" style="fill:url(#未命名漸層_54-2)"/><polygon id="M" points="1.14 68.83 1.14 75 0.01 75 0.01 67.08 1.09 67.08 4.94 72.23 8.53 67.08 9.74 67.08 9.74 75 8.53 75 8.53 68.75 5.09 73.75 4.75 73.75 1.14 68.83" style="fill:#b3b3b3"/><path d="M18.05,67.08H16.64L12.32,75h1.3l1-1.95H20L21,75h1.45Zm-2.21,5h-.66L17.31,68l.33.62L19.44,72Z" style="fill:#b3b3b3"/><polygon id="X" points="23.82 67.08 25.72 67.08 28.49 70.08 31.09 67.08 32.74 67.08 29.26 70.8 33.51 75 31.6 75 28.46 71.62 25.55 75 23.88 75 27.71 70.92 23.82 67.08" style="fill:#b3b3b3"/><rect id="M_04" x="9.74" y="67.08" width="0.58" height="7.91" style="fill:#fff"/><polygon id="M_03" points="5.79 73.75 8.53 69.78 8.53 68.75 5.09 73.75 5.79 73.75" style="fill:#fff"/><polygon id="M_02" points="1.72 75 1.72 69.62 1.14 68.83 1.14 75 1.72 75" style="fill:#fff"/><polygon id="M_01" points="5.29 71.73 1.81 67.08 1.09 67.08 4.94 72.23 5.29 71.73" style="fill:#fff"/><polygon id="A_03" points="15.84 72.04 17.64 68.61 17.31 67.99 15.18 72.04 15.84 72.04" style="fill:#fff"/><polygon id="A_02" points="14.27 75 15.28 73.05 14.63 73.05 13.62 75 14.27 75" style="fill:#fff"/><polygon id="A_01" points="22.45 75 23.11 75 18.71 67.08 18.05 67.08 22.45 75" style="fill:#fff"/><polygon id="X_03" points="28.87 69.64 26.51 67.08 25.72 67.08 28.49 70.08 28.87 69.64" style="fill:#fff"/><polygon id="X_02" points="30.07 70.78 33.54 67.08 32.74 67.08 29.26 70.8 33.51 75 34.33 75 30.07 70.78" style="fill:#fff"/><polygon id="X_01" points="25.55 75 26.31 75 28.86 72.05 28.46 71.62 25.55 75" style="fill:#fff"/><path id="G" d="M50.41,69.06l-1.32.26V68.16h-6.2V73.9h6.2V71.58h-3.2v-1h4.52v2.78A1.66,1.66,0,0,1,48.75,75H43.23a1.66,1.66,0,0,1-1.66-1.66v-4.6a1.66,1.66,0,0,1,1.66-1.66h5.52a1.66,1.66,0,0,1,1.66,1.66Z" style="fill:#b3b3b3"/><polygon id="E" points="61.83 67.08 61.83 68.15 55.53 68.15 55.53 70.35 59.38 70.35 59.38 71.4 55.53 71.4 55.53 73.91 61.88 73.91 61.88 75 54.2 75 54.2 67.08 61.83 67.08" style="fill:#b3b3b3"/><path id="A" d="M69.22,67.08H67.81L63.49,75h1.3l1-1.95h5.35l1,1.95h1.45Zm-2.87,5L68.48,68,70.61,72Z" style="fill:#b3b3b3"/><path id="R-2" data-name="R" d="M81.4,71.91h1.51a1.32,1.32,0,0,0,1.32-1.32V68.41a1.32,1.32,0,0,0-1.32-1.32H76.18V75H77.5V71.91h2.33L83.05,75h2Zm-3.89-1V68.11h4.73a.66.66,0,0,1,.66.66v1.46a.66.66,0,0,1-.66.66Z" style="fill:#b3b3b3"/><polygon id="G_04" points="42.89 68.74 48.51 68.74 48.51 69.44 49.09 69.32 49.09 68.16 42.89 68.16 42.89 68.74" style="fill:#fcfbff"/><rect id="G_03" x="48.51" y="71.58" width="0.58" height="2.32" style="fill:#fcfbff"/><path id="G_02" d="M41.57,73.34v-4.6a1.66,1.66,0,0,1,1.66-1.66h-.58A1.66,1.66,0,0,0,41,68.74v4.6A1.66,1.66,0,0,0,42.65,75h.58A1.66,1.66,0,0,1,41.57,73.34Z" style="fill:#fcfbff"/><rect id="G_01" x="45.3" y="70.56" width="0.58" height="1.01" style="fill:#fcfbff"/><rect id="E_02" x="55.53" y="68.15" width="6.3" height="0.58" style="fill:#fcfbff"/><rect id="E_01" x="53.62" y="67.08" width="0.58" height="7.91" style="fill:#fcfbff"/><polygon id="A_03-2" data-name="A_03" points="63.49 75 67.81 67.08 67.15 67.08 62.83 75 63.49 75" style="fill:#fcfbff"/><polygon id="A_02-2" data-name="A_02" points="68.15 68.61 69.96 72.04 70.61 72.04 68.48 67.99 68.15 68.61" style="fill:#fcfbff"/><polygon id="A_01-2" data-name="A_01" points="71.51 75 70.5 73.05 71.15 73.05 72.17 75 71.51 75" style="fill:#fcfbff"/><polygon id="R_03" points="83.05 75 83.05 75 82.21 75 79 71.91 79.83 71.91 83.05 75" style="fill:#fcfbff"/><path id="R_02" d="M77.5,68.11h4.73a.66.66,0,0,1,.66.66v1.46a.66.66,0,0,1-.67.66h-.58a.66.66,0,0,0,.67-.66v-.88a.66.66,0,0,0-.66-.66H77.5Z" style="fill:#fcfbff"/><rect id="R_01" x="75.6" y="67.08" width="0.58" height="7.91" style="fill:#fcfbff"/></g></svg>